<svg width="19" height="18" viewBox="0 0 19 18" fill="none" xmlns="http://www.w3.org/2000/svg">
<path d="M11.2808 7.23828C13.0654 7.23828 14.6011 5.64453 14.6011 3.56934C14.6011 1.51904 13.0571 0 11.2808 0C9.5127 0 7.96045 1.55225 7.96875 3.58594C7.96875 5.64453 9.50439 7.23828 11.2808 7.23828ZM11.2808 8.72412C9.86133 8.72412 8.62451 9.05615 7.62012 9.5708C8.81543 10.5503 9.5791 12.0361 9.5791 13.6963C9.5791 14.1113 9.5293 14.5347 9.42969 14.9248H16.4937C17.7969 14.9248 18.2617 14.5513 18.2617 13.8208C18.2617 11.6792 15.5806 8.72412 11.2808 8.72412ZM4.2168 17.9131C6.50781 17.9131 8.43359 15.9956 8.43359 13.6963C8.43359 11.3804 6.53271 9.47949 4.2168 9.47949C1.90918 9.47949 0 11.3804 0 13.6963C0 16.0122 1.90918 17.9131 4.2168 17.9131ZM4.2251 16.4355C3.93457 16.4355 3.67725 16.2363 3.67725 15.9209V14.2026H2.0918C1.80957 14.2026 1.57715 13.9702 1.57715 13.6963C1.57715 13.4141 1.80957 13.1816 2.0918 13.1816H3.67725V11.4634C3.67725 11.1479 3.93457 10.957 4.2251 10.957C4.50732 10.957 4.76465 11.1479 4.76465 11.4634V13.1816H6.3501C6.63232 13.1816 6.85645 13.4141 6.85645 13.6963C6.85645 13.9702 6.63232 14.2026 6.3501 14.2026H4.76465V15.9209C4.76465 16.2363 4.50732 16.4355 4.2251 16.4355Z" fill="#808082"/>
</svg>
