<svg width="12" height="13" viewBox="0 0 12 13" fill="none" xmlns="http://www.w3.org/2000/svg">
<path d="M6.43994 12.1006C9.43164 12.1006 11.9185 9.61914 11.9185 6.62207C11.9185 5.37061 11.4834 4.21045 10.7583 3.28125L11.1772 2.85693C11.3008 2.7334 11.3706 2.56689 11.3706 2.42188C11.3706 2.12109 11.1289 1.87939 10.8174 1.87939C10.6348 1.87939 10.5059 1.93311 10.377 2.05664L9.96875 2.45947C9.14697 1.76123 8.12646 1.29395 7.00928 1.17578V0.649414C7.00928 0.327148 6.75146 0.0585938 6.43457 0.0585938C6.11768 0.0585938 5.85449 0.327148 5.85449 0.649414V1.17578C3.12598 1.47119 0.961426 3.82373 0.961426 6.62207C0.961426 9.61914 3.44287 12.1006 6.43994 12.1006ZM6.43994 11.1875C3.90479 11.1875 1.87988 9.15723 1.87988 6.62207C1.87988 4.09229 3.89941 2.05664 6.43457 2.05664C8.96436 2.05664 11 4.09229 11.0054 6.62207C11.0107 9.15723 8.96973 11.1875 6.43994 11.1875ZM6.43994 7.49219C6.91797 7.49219 7.29932 7.10547 7.29932 6.62744C7.29932 6.28906 7.10596 5.99365 6.81055 5.84863V3.1792C6.81055 2.96973 6.64404 2.80859 6.43457 2.80859C6.2251 2.80859 6.06396 2.96973 6.06396 3.1792V5.84326C5.76855 5.99902 5.56982 6.28906 5.56982 6.62744C5.56982 7.10547 5.95654 7.49219 6.43994 7.49219Z" fill="#C4C4C4"/>
</svg>
