<svg width="36" height="36" viewBox="0 0 36 36" fill="none" xmlns="http://www.w3.org/2000/svg">
<rect width="36" height="36"/>
<path fill-rule="evenodd" clip-rule="evenodd" d="M30.2197 6.46094C30.5925 6.82702 30.5934 7.42979 30.2226 7.79874L30.2187 7.80257C29.8488 8.17344 29.5546 8.4753 29.5546 8.4753L27.5096 6.45136C27.5096 6.45136 27.8048 6.1495 28.1737 5.78055L28.1756 5.77863C28.5465 5.40873 29.1541 5.40681 29.5259 5.7748L30.2197 6.46094ZM16.3403 17.5727L15.6033 20.3163L18.3843 19.5947L28.8692 9.14631L26.826 7.12237L16.3403 17.5727ZM25.7596 15.3876V25.6309C25.7596 26.1589 25.3293 26.5873 24.7993 26.5873H10.3835C9.85264 26.5873 9.42236 26.1589 9.42236 25.6309V11.2927C9.42236 10.7657 9.85264 10.3363 10.3835 10.3363H20.4093L22.3461 8.42451H10.3835C8.79371 8.42451 7.5 9.71056 7.5 11.2927V25.6309C7.5 27.213 8.79371 28.4991 10.3835 28.4991H24.7993C26.3882 28.4991 27.6819 27.213 27.6819 25.6309V13.4901L25.7596 15.3876Z" fill="white"/>
<mask id="mask0" mask-type="alpha" maskUnits="userSpaceOnUse" x="7" y="5" width="24" height="24">
<path fill-rule="evenodd" clip-rule="evenodd" d="M30.2197 6.46094C30.5925 6.82702 30.5934 7.42979 30.2226 7.79874L30.2187 7.80257C29.8488 8.17344 29.5546 8.4753 29.5546 8.4753L27.5096 6.45136C27.5096 6.45136 27.8048 6.1495 28.1737 5.78055L28.1756 5.77863C28.5465 5.40873 29.1541 5.40681 29.5259 5.7748L30.2197 6.46094ZM16.3403 17.5727L15.6033 20.3163L18.3843 19.5947L28.8692 9.14631L26.826 7.12237L16.3403 17.5727ZM25.7596 15.3876V25.6309C25.7596 26.1589 25.3293 26.5873 24.7993 26.5873H10.3835C9.85264 26.5873 9.42236 26.1589 9.42236 25.6309V11.2927C9.42236 10.7657 9.85264 10.3363 10.3835 10.3363H20.4093L22.3461 8.42451H10.3835C8.79371 8.42451 7.5 9.71056 7.5 11.2927V25.6309C7.5 27.213 8.79371 28.4991 10.3835 28.4991H24.7993C26.3882 28.4991 27.6819 27.213 27.6819 25.6309V13.4901L25.7596 15.3876Z" fill="white"/>
</mask>
<g mask="url(#mask0)">
</g>
</svg>
