<svg width="18" height="18" viewBox="0 0 18 18" fill="none" xmlns="http://www.w3.org/2000/svg">
<path d="M8.39773 12.5512L9.79442 11.1549C8.90186 11.064 8.20764 10.75 7.72831 10.2708C6.36467 8.90757 6.36467 6.99903 7.72004 5.64404L10.5052 2.85972C11.8688 1.50473 13.7696 1.50473 15.1333 2.85972C16.5052 4.23123 16.4969 6.13977 15.1415 7.49475L13.9101 8.7258C14.1994 9.39503 14.3151 10.2378 14.125 10.9731L16.439 8.65971C18.5217 6.60245 18.5217 3.65288 16.4308 1.56257C14.3399 -0.52774 11.406 -0.511215 9.33988 1.55431L6.41426 4.47083C4.34814 6.54461 4.33988 9.48592 6.43079 11.568C6.87707 12.0224 7.52996 12.3859 8.39773 12.5512ZM9.60434 5.44575L8.20764 6.85031C9.10021 6.94119 9.79442 7.24689 10.2738 7.72609C11.6374 9.08933 11.6374 11.0061 10.282 12.3529L7.4969 15.1372C6.13326 16.4922 4.22417 16.5004 2.8688 15.1372C1.4969 13.7657 1.50517 11.8654 2.86054 10.5104L4.09194 9.27936C3.80269 8.61013 3.68698 7.75914 3.87707 7.02381L1.55475 9.3372C-0.519626 11.4027 -0.519626 14.344 1.56302 16.4343C3.66219 18.5246 6.59608 18.5164 8.66219 16.4426L11.5795 13.5261C13.6539 11.4523 13.6622 8.51925 11.5713 6.42894C11.125 5.97453 10.4721 5.61099 9.60434 5.44575Z" fill="white"/>
</svg>
