<svg width="19" height="19" viewBox="0 0 19 19" fill="none" xmlns="http://www.w3.org/2000/svg">
<path d="M1.13672 15.6143C0.610352 16.1406 0.588867 17.0752 1.14746 17.623C1.69531 18.1709 2.64062 18.1602 3.15625 17.6445L9.51562 11.2852L15.8643 17.6338C16.4014 18.1709 17.3252 18.1709 17.873 17.623C18.4209 17.0645 18.4209 16.1514 17.8838 15.6143L11.5352 9.26562L17.8838 2.90625C18.4209 2.36914 18.4316 1.44531 17.873 0.897461C17.3145 0.349609 16.4014 0.349609 15.8643 0.886719L9.51562 7.23535L3.15625 0.886719C2.64062 0.360352 1.69531 0.338867 1.14746 0.897461C0.599609 1.44531 0.610352 2.39062 1.13672 2.90625L7.48535 9.26562L1.13672 15.6143Z" fill="white"/>
</svg>
